#N canvas 67 87 1299 681 10;
#X obj 258 78 TuioClient;
#X obj 260 134 route addObject removeObject updateObject;
#X obj 342 207 unpack \$1 \$2;
#X obj 216 205 unpack \$1 \$2;
#X obj 459 210 unpack \$1 \$2 \$3 \$4 \$5;
#X obj 187 266 print addObject;
#X obj 316 268 print removeObject;
#X floatatom 463 284 5 0 0 0 - - -, f 5;
#X floatatom 518 288 5 0 0 0 - - -, f 5;
#X floatatom 572 289 5 0 0 0 - - -, f 5;
#X floatatom 631 287 5 0 0 0 - - -, f 5;
#X obj 445 327 sel 1;
#X obj 476 346 bng 15 250 50 0 empty empty empty 17 7 0 10 -262144
-1 -1;
#X msg 514 439 open /home/juanpagim/Desktop/wavs/one.wav;
#X obj 447 463 readsf~;
#X obj 485 548 dac~;
#X msg 384 441 1;
#X obj 469 507 *~;
#X obj 314 372 sel 2;
#X msg 335 466 0;
#X obj 317 434 bng 15 250 50 0 empty empty empty 17 7 0 10 -262144
-1 -1;
#X obj 724 182 OSCroute /processing;
#X obj 727 551 udpsend;
#X obj 854 509 packOSC;
#X msg 861 428 send /r \$1;
#X obj 929 479 print;
#X msg 610 514 disconnect;
#X obj 825 383 * 400;
#X obj 799 119 dumpOSC 5050;
#X msg 652 478 connect localhost 5051;
#X floatatom 765 256 5 0 0 0 - - -, f 5;
#X msg 892 359 100;
#X msg 939 379 0;
#X msg 966 417 send /p \$1;
#X obj 984 473 spigot 0;
#X obj 977 518 sel 0;
#X obj 1020 501 print;
#X msg 922 287 open /home/juanpagim/Desktop/wavs/levels.wav;
#X obj 832 238 sel 3;
#X obj 852 276 bng 15 250 50 0 empty empty empty 17 7 0 10 -262144
-1 -1;
#X obj 908 187 OSCroute /next_track;
#X msg 1059 424 send /c \$1;
#X msg 1065 372 1;
#X msg 1117 463 send /c1 \$1;
#X obj 620 164 OSCroute /stop;
#X connect 0 0 1 0;
#X connect 1 0 3 0;
#X connect 1 1 2 0;
#X connect 1 2 4 0;
#X connect 2 1 6 0;
#X connect 3 1 5 0;
#X connect 4 1 7 0;
#X connect 4 2 8 0;
#X connect 4 3 9 0;
#X connect 4 4 10 0;
#X connect 7 0 11 0;
#X connect 7 0 18 0;
#X connect 7 0 38 0;
#X connect 8 0 17 1;
#X connect 8 0 27 0;
#X connect 11 0 12 0;
#X connect 12 0 13 0;
#X connect 12 0 16 0;
#X connect 12 0 29 0;
#X connect 12 0 31 0;
#X connect 12 0 43 0;
#X connect 13 0 14 0;
#X connect 14 0 17 0;
#X connect 16 0 14 0;
#X connect 17 0 15 0;
#X connect 17 0 15 1;
#X connect 18 0 20 0;
#X connect 19 0 14 0;
#X connect 20 0 19 0;
#X connect 20 0 32 0;
#X connect 21 0 30 0;
#X connect 23 0 22 0;
#X connect 24 0 23 0;
#X connect 24 0 25 0;
#X connect 26 0 22 0;
#X connect 27 0 24 0;
#X connect 28 0 21 0;
#X connect 28 0 40 0;
#X connect 28 0 44 0;
#X connect 29 0 22 0;
#X connect 30 0 17 1;
#X connect 31 0 33 0;
#X connect 32 0 33 0;
#X connect 32 0 34 0;
#X connect 33 0 23 0;
#X connect 34 0 35 0;
#X connect 34 0 36 0;
#X connect 35 0 26 0;
#X connect 37 0 14 0;
#X connect 38 0 39 0;
#X connect 39 0 37 0;
#X connect 39 0 16 0;
#X connect 39 0 42 0;
#X connect 39 0 29 0;
#X connect 39 0 31 0;
#X connect 40 0 38 0;
#X connect 40 0 11 0;
#X connect 41 0 23 0;
#X connect 42 0 41 0;
#X connect 43 0 23 0;
#X connect 44 0 18 0;
